/* XPM */
static char *floor_resized[] = {
/* columns rows colors chars-per-pixel */
"35 35 38 1 ",
"  c #96BFF1",
". c #96C0F1",
"X c #96C0F2",
"o c #97C0F2",
"O c #97C1F3",
"+ c #9EC9FD",
"@ c #9ECAFD",
"# c #9FCAFD",
"$ c #9ECAFE",
"% c #9FCAFE",
"& c #9FCBFE",
"* c #9FCBFF",
"= c #A3CAF8",
"- c #A3CAF9",
"; c #A1CAFB",
": c #A1CBFB",
"> c #A2CAFA",
", c #A2CAFB",
"< c #A2CBFB",
"1 c #A4CAF8",
"2 c #A4CAF9",
"3 c #A4CBF9",
"4 c #A5CBF9",
"5 c #A4CBFA",
"6 c #A7CDFB",
"7 c #A7CEFB",
"8 c #A0CAFC",
"9 c #A0CAFD",
"0 c #A0CBFD",
"q c #A1CBFD",
"w c #A2CBFC",
"e c #A0CBFE",
"r c #A5CDFC",
"t c #A6CDFC",
"y c #A7CDFC",
"u c #A7CEFC",
"i c #A8CEFB",
"p c #A8CEFC",
/* pixels */
"r***********$oo$***********uy&*****",
"*$&********&$@@$&********&$**$&****",
"*&@&******&@&**&@&******&+%**&@&***",
"**&@&****9#&****&@&****&+%****&@&**",
"***&@&**918******&@&**&+%******&@&*",
"****&$*0-;********&$&*@%********&$*",
"******05w***********yy&***********e",
"*****04q************7u***********04",
"****e2,*$&********&@&*$&********e->",
"***0-;**&@&******&+%**&@&******0-;*",
"**&:;****&@&****&+%****&@&****&:;**",
"*&@&******&@&**&+%******&@&**&@&***",
"%$&********&$&*@%********&$$$$&****",
"O$***********6y&**********$XX$*****",
"o@***********pu&**********$. $*****",
"$$%********&@&*$&********&$$$$%****",
"*&+%******&+%**&@&******&@&**&+%***",
"**&+%****&+%****&@&****9#&****&+%**",
"***&+%**&+%******&@&**9=8******&+%*",
"****&@&*@%********&$*0-;********&@&",
"******yy&***********05w***********t",
"******6u&**********04q************t",
"****&@&*@%********e2;*$&********&@&",
"***&+%**&+%******0-;**&@&******&+%*",
"**&+%****&+%****&:;****&@&****&+%**",
"*&+%******&+%**&$*******&@&**&+%***",
"&@%********&$$$$&********&$**@%****",
"t&**********$Xo$***********u7&*****",
"t***********@. $***********ii******",
"*$&********&$@@$&********&$&*$&****",
"*&@&******&@&**&@&******&+%**&@&***",
"**&@&****9#&****&@&****&+%****&@&**",
"***&@&**9=8******&@&**&+%******&@&*",
"****&$*0-;********&$**@%********&$*",
"******#3<**********&rr&***********&"
};
