/* XPM */
static char *coll_resized[] = {
/* columns rows colors chars-per-pixel */
"35 35 113 2 ",
"   c #95373F",
".  c #96393F",
"X  c #993E3D",
"o  c #9B423B",
"O  c #A34E37",
"+  c #A14B38",
"@  c #A65335",
"#  c #A85634",
"$  c #AA5833",
"%  c #B4662D",
"&  c #B56A2D",
"*  c #B96E2A",
"=  c #BD7329",
"-  c #AF6130",
";  c #B06131",
":  c #C07627",
">  c #C27D27",
",  c #8D2D43",
"<  c #8F3142",
"1  c #923441",
"2  c #CE8C1F",
"3  c #D5961D",
"4  c #D7981A",
"5  c #DB9E18",
"6  c #DEA316",
"7  c #DFA518",
"8  c #EBB50F",
"9  c #EFB80D",
"0  c #F3BE0B",
"q  c #E1A615",
"w  c #E4AA14",
"e  c #EAB411",
"r  c #C98422",
"t  c #CD8B21",
"y  c #FCC603",
"u  c #FDCA04",
"i  c #F5C20A",
"p  c #FAC708",
"a  c #FDCD0C",
"s  c #FFD202",
"d  c #FFDA00",
"f  c #FDD10D",
"g  c #FDCF12",
"h  c #FDD113",
"j  c #FDD31B",
"k  c #FCD623",
"l  c #FFD820",
"z  c #FCD72A",
"x  c #FDD92B",
"c  c #FBD432",
"v  c #FDDD34",
"b  c #F9D53D",
"n  c #FCDF3D",
"m  c #FDE13D",
"M  c #FCDF42",
"N  c #FADC4D",
"B  c #FEE444",
"V  c #FEE846",
"C  c #FDE54B",
"Z  c #FEE94A",
"A  c #FDE552",
"S  c #FEEA54",
"D  c #FDEB5A",
"F  c #FADE6A",
"G  c #F9E264",
"H  c #FDED63",
"J  c #FAE46D",
"K  c #FCEC6C",
"L  c #FDF06A",
"P  c #FCEE70",
"I  c #F4E294",
"U  c #FAEA93",
"Y  c #F8E79C",
"T  c #FBEE9A",
"R  c #FDF290",
"E  c #F3E5A4",
"W  c #F5ECA1",
"Q  c #FEEEA1",
"!  c #F5EBAD",
"~  c #FBEDAA",
"^  c #FAF2AC",
"/  c #FFF8AF",
"(  c #F6ECB4",
")  c #FDF4B1",
"_  c #FBF5BB",
"`  c #EFE7C7",
"'  c #EEEACD",
"]  c #F9EEC1",
"[  c #F3EDCC",
"{  c #FCF4C3",
"}  c #F4F0CB",
"|  c #F9F3CB",
" . c #FFFBCD",
".. c #EFEBDB",
"X. c #F0EDD7",
"o. c #F1EFD8",
"O. c #F8F6D1",
"+. c #FEF9D4",
"@. c #EAEAE7",
"#. c #EDEDEC",
"$. c #F6F5EC",
"%. c #F8F6E9",
"&. c #FDFCEC",
"*. c #ECEDF4",
"=. c #ECEEF9",
"-. c #EFF0F4",
";. c #EEF0FB",
":. c #F4F4F3",
">. c #F8F7F5",
",. c #F9F9F6",
"<. c #F4F5FC",
"1. c #F7F9FF",
"2. c #FCFCFC",
/* pixels */
"#.#.2.2.2.#.-.2.2.:.#.:.2.2.;.#.%.&.%.#.:.2.2.:.#.:.2.2.:.#.2.2.:.#.*.",
"#.#.2.2.:.#.#.2.2.:.=.>.+.T G C M n N A J T +.:.=.:.2.2.#.#.2.2.2.#.#.",
"2.2.:.:.:.2.2.$.<.<.! N j j j x x m v m v v m G ( >.<.:.>.2.:.:.:.2.2.",
"2.2.:.@.:.2.2.=.' N f j z x v x k z x x B B Z B m K ' =.2.2.:.@.:.2.2.",
">.2.:.:.:.2.1.E j h k k j h a u u u u y a j c Z A B C ! 1.2.:.:.:.2.:.",
"#.@.2.2.,.=.I f h k j a u u u u u u y u y y y g n S S Z W *.2.2.2.@.#.",
"*.#.2.2.1.E u h j g u u u u u u u u u u u u u y u z S S Z ! <.2.2.#.:.",
"2.2.:.*.[ f h j a u u u u u u u u 0 i u u y u u u y k S D S } *.:.2.2.",
"2.2.:.*.b u j f p u u u u u p s w , = s y y u u u u y z D A P #.:.2.2.",
":.:.1.Y u h f u u u u u u u u d q , * s a s u u u u u y n H S ~ <.:.:.",
"#.@.,.c u h s p u u u u u s 6 & O X o # * 5 p u u u u y g D D K >.#.#.",
":.1.( u f u p p u u u u s > 1 1   X   1   , 4 s u u y p y v H S _ <.:.",
"2.2.F y g a p s u u u s 5 1 X o #   @ & o o 0 u u u u u y g H S R 2.2.",
"2.2.x u f y p s u u u s *     t e , = d 8 5 u u u u p u u u C H L ,.2.",
":...g a a u u s u u u s %   1 2 e , * s y u y u u u u u u y m K H o.:.",
"=.` u a a u u u s u u s r , o o $   & u a u y u u u y u u y v H D [ =.",
"<._ u p p u u u u u u u i $ 1     X X O = 8 s u u u u y u y z H D | 2.",
"2.{ u f s u u p u u u a u p r # X X X   1 X q s p u u u u y z K D  .2.",
"1.} u f f u a s u u u u u u s s 3 1 + o X   @ u y u u u u y c L D O.1.",
"-...f p f u u u u u u u u s u s w < = e X X X 0 u u u u u y m H D X.*.",
"#.-.c u f u u u u u u s e * 8 s e , : i X 1 o 0 u p u u u u C H P $.*.",
"2.2.G u h u u u u u u s = , o ; %   @ + o 1 & s u u u u y g H D R 2.2.",
"2.2.( y f a u u u u u a * 1 1 1 1 X 1 1 1 # i u u u u u y v H S { 2.2.",
":.:.:.c u h s u u u u u a q = $ + X o % t p a y u y u u a D D K $.:.:.",
"#.#.2.Q u h f u u u u u u s s s 7 , * d u u u u u u u y n H S / 1.@.#.",
":.:.:.2.b u j f u u u u u u u s w < = u y u u u y u y z D S K >.2.:.:.",
"2.2.:.*.[ g f j a u u u u u u u p 8 0 u u u u u p y k D S S [ *.:.2.2.",
"2.2.:.#.<.Q a h j h u u u u u u u u u u u u u y u z A A Z ^ <.#.:.2.2.",
"*.#.2.2.>.=.I a h k j a u u u u u u u u y y y g n S S B W =.,.2.:.#.:.",
"#.@.2.2.2.@.;.~ j g k k j f a a u u u u a j v C A B Z ) ;.@.2.2.2.#.#.",
"2.,.:.:.:.2.>.<.[ N f j z x x x z k z v m B C n m K X.>.>.2.:.:.:.2.:.",
"2.2.:.@.:.2.2.#.*.1.) A j j l x x v m v m v v H _ 2.*.#.2.2.:.@.:.2.2.",
"2.2.:.:.:.>.<.:.:.>.2.<.[ U G N m n B N J T | >.1.:.:.:.2.>.:.:.:.2.>.",
"#.#.2.2.2.@.#.2.2.:.#.:.2.2.:.#.%.&.%.#.<.2.2.:.#.:.2.2.#.#.1.2.2.@.*.",
":.#.>.2.2.#.#.2.2.:.#.:.2.2.#.#.2.2.1.#.#.2.2.:.#.:.2.2.:.@.2.2.2.#.#."
};
