/* XPM */
static char *exit_resized[] = {
/* columns rows colors chars-per-pixel */
"35 35 103 2 ",
"   c None",
".  c #1C1311",
"X  c #27150F",
"o  c #291711",
"O  c #2D1A14",
"+  c #251B18",
"@  c #35211A",
"#  c #3B231C",
"$  c #201F20",
"%  c #2E2D2E",
"&  c #382722",
"*  c #302F30",
"=  c #343334",
"-  c #3C3534",
";  c #373638",
":  c #383738",
">  c #3D3B3D",
",  c #402D27",
"<  c #432F2A",
"1  c #46322D",
"2  c #49352F",
"3  c #5A362B",
"4  c #453632",
"5  c #4A3731",
"6  c #443936",
"7  c #4E3A34",
"8  c #433C3B",
"9  c #533C35",
"0  c #543F39",
"q  c #613C30",
"w  c #56413B",
"e  c #59433D",
"r  c #684337",
"t  c #67453A",
"y  c #6A473C",
"u  c #6E483C",
"i  c #714A3E",
"p  c #7A5137",
"a  c #7D543E",
"s  c #3F3F40",
"d  c #413F41",
"f  c #444445",
"g  c #4C4443",
"h  c #4C4B4C",
"j  c #524340",
"k  c #5C4740",
"l  c #5D4A46",
"z  c #564F4D",
"x  c #514F50",
"c  c #535253",
"v  c #595657",
"b  c #5B5A5B",
"n  c #604B44",
"m  c #744E42",
"M  c #6C544E",
"N  c #7C5444",
"B  c #7B564A",
"V  c #7E5A4F",
"C  c #695C5A",
"Z  c #7B5B52",
"A  c #6A605F",
"S  c #7D635B",
"D  c #5F5E60",
"F  c #605F60",
"G  c #646364",
"H  c #676768",
"J  c #686768",
"K  c #6A6A6B",
"L  c #766C68",
"P  c #6F6F70",
"I  c #747374",
"U  c #787778",
"Y  c #7C7C7D",
"T  c #81573D",
"R  c #82583E",
"E  c #805645",
"W  c #825946",
"Q  c #845B4D",
"!  c #895E4C",
"~  c #855D51",
"^  c #8A5F52",
"/  c #91654B",
"(  c #806057",
")  c #8C6253",
"_  c #8C6559",
"`  c #8D685E",
"'  c #916554",
"]  c #946853",
"[  c #9D6F56",
"{  c #916658",
"}  c #95695B",
"|  c #9A6D5E",
" . c #A06F5F",
".. c #816A64",
"X. c #8C6C63",
"o. c #956C60",
"O. c #9C6F61",
"+. c #9D7062",
"@. c #99756B",
"#. c #A27162",
"$. c #818182",
"%. c #8B8B8C",
"&. c #969697",
/* pixels */
"                                                                      ",
"                                                                      ",
"                            J h b h b K ; h                           ",
"                        G c I 8 < < 1 4 6 b d f                       ",
"                      c U - , m } Q } } r 1 g b *                     ",
"                    F c < B Q ^ | Q  .O.Q | y 1 c D                   ",
"                  c Y 4 m O.^ W / Q  .O.Q #.Q ^ 4 c f                 ",
"                  J h 9 Q #.^ W / Q | O.Q  .Q | 9 b f                 ",
"                c U 6 Q Q #.' ' | Q | | Q | Q } i 4 b =               ",
"                b K 2 } ~ #.^ { +.! } ) Q | Q ! E w K f               ",
"                H H 1 } Q O.^ ' +.! { E W O.Q a E w I f               ",
"                v G 5 } Q O.^ } O.~ } R W o.Q N E l I g               ",
"                v G 2 } Q O.^ [ #.Q } E W O.Q S L c b >               ",
"                H I 5 ) W O.) } #.~ } R W o.V C b f v f               ",
"                F K 5 N a O.) } #.Q } W Q | Q _ B j I h               ",
"                b G 4 W E [ ! { O.! } ' Q O.Q } W w I f               ",
"                f K 0 _ W [ ! { +.~ } O.Q O.Q | W k %.D               ",
"                c K 5 } ! | ) { +.~ } O.Q | Q | Q 0 I h               ",
"                G I 7 } Q O.^ _ O.~ } O.Q o.Q | Q 0 C f               ",
"                v b 1 o.X.X.Z _ O.Q | #.Q | Q | Q 0 F =               ",
"                G G 5 } X.@.( } O.^ | #.Q | Q } Q w I f               ",
"                v b 2 } Z ` Z } O.Q | #.Q | Q } Q w K :               ",
"                I $.7 } Q o.~ { O.Q | #.Q ' N } W w $.b               ",
"                K K 2 O.Q O.^ { +.~ | #.Q ! p } Q k Y f               ",
"                f f 7 | ! ) W ' O.~ } O.~ W p } W 0 K h               ",
"                x L w | ! Q R Q ] ~ } O.Q ! N } Q l &.F               ",
"                h c 1 } ~ ! R W ] Q } O.Q } W X...x F :               ",
"                I %.w } Q Q R _ O.Q } O.Q O.V C F x Y v               ",
"                P %.w } Q ! R }  .Q | O.Q | Q S M g G f               ",
"                v c 1 ) Q ) W { +.~ O. .Q | Q } Q 9 v =               ",
"                J $.7 R W O.^ {  .Q | #.Q | Q Q N e $.c               ",
"                P I 5 ' ~ O.^ { +.Q O. .Q | Q W E k Y f               ",
"                c h , ) Q #.) { +.Q | O.Q O.~ { N 9 b =               ",
"                G G & q m ) B Q i 3 y ) N ) m r 3 5 Y h               ",
"                * % . o O @ # @ o X o @ # @ # o X + s $               "
};
