/* XPM */
static char *player_resized[] = {
/* columns rows colors chars-per-pixel */
"35 35 147 2 ",
"   c #940000",
".  c #9D0101",
"X  c #9B0C0C",
"o  c #A40101",
"O  c #AC0101",
"+  c #A50A0A",
"@  c #A90B0A",
"#  c #B30000",
"$  c #BB0100",
"%  c #B40A0A",
"&  c #BF0D0C",
"*  c #A41312",
"=  c #A91515",
"-  c #A31817",
";  c #A41C1C",
":  c #AB1D1D",
">  c #B21111",
",  c #A72121",
"<  c #AC2322",
"1  c #AD2F2F",
"2  c #AF3838",
"3  c #B13333",
"4  c #BA3E3D",
"5  c #C40000",
"6  c #CC0201",
"7  c #C50F0E",
"8  c #CC0D0D",
"9  c #D30403",
"0  c #D90606",
"q  c #D60807",
"w  c #D50909",
"e  c #DD0A0A",
"r  c #D7100F",
"t  c #C51010",
"y  c #CB1514",
"u  c #DE1112",
"i  c #E10C0E",
"p  c #E80C0E",
"a  c #E40F11",
"s  c #E61113",
"d  c #E81416",
"f  c #E31618",
"g  c #E91619",
"h  c #E4181A",
"j  c #EB1A1C",
"k  c #F01719",
"l  c #DC1E20",
"z  c #EC1E21",
"x  c #C12425",
"c  c #CE2122",
"v  c #D32424",
"b  c #DD2526",
"n  c #D92827",
"m  c #DE2A2B",
"M  c #CF3D3C",
"N  c #D43434",
"B  c #DC3234",
"V  c #EE2324",
"C  c #EE2628",
"Z  c #E62C2E",
"A  c #EC292B",
"S  c #F22325",
"D  c #F22729",
"F  c #F12A2C",
"G  c #E82F31",
"H  c #F32E30",
"J  c #E53334",
"K  c #ED3133",
"L  c #EF393B",
"P  c #F33234",
"I  c #F13738",
"U  c #F43B3D",
"Y  c #F43F41",
"T  c #B54040",
"R  c #B44E4E",
"E  c #B94C4C",
"W  c #BB5353",
"Q  c #BE5C5C",
"!  c #DD4042",
"~  c #D64E4E",
"^  c #CB5555",
"/  c #DC5555",
"(  c #DA5959",
")  c #EC4245",
"_  c #EB4A4C",
"`  c #F24345",
"'  c #F5494B",
"]  c #EF5B5D",
"[  c #F35455",
"{  c #F45759",
"}  c #C36666",
"|  c #CD6767",
" . c #C26E6E",
".. c #CA6C6C",
"X. c #D36A6A",
"o. c #DE6869",
"O. c #C77272",
"+. c #CD7C7C",
"@. c #DD7776",
"#. c #EC6465",
"$. c #E86668",
"%. c #F66364",
"&. c #F96869",
"*. c #E07778",
"=. c #E27A7B",
"-. c #F77173",
";. c #F87677",
":. c #F77779",
">. c #F67A7B",
",. c #DC8182",
"<. c #CE9595",
"1. c #D59797",
"2. c #DB9E9E",
"3. c #E78182",
"4. c #F78182",
"5. c #F98788",
"6. c #F38B8C",
"7. c #FA8A8B",
"8. c #F69394",
"9. c #F89798",
"0. c #F99D9E",
"q. c #D5A3A3",
"w. c #D8A6A6",
"e. c #DAA9A9",
"r. c #E3A3A3",
"t. c #ECA3A4",
"y. c #E3AEAE",
"u. c #EAABAC",
"i. c #F9A0A1",
"p. c #F0A8A8",
"a. c #FAAFAF",
"s. c #F3B3B3",
"d. c #FAB5B5",
"f. c #F5BABA",
"g. c #FBBFC0",
"h. c #E2C3C3",
"j. c #E3C8C8",
"k. c #F2CDCD",
"l. c #E8D2D2",
"z. c #EAD8D8",
"x. c #F2D2D3",
"c. c #EEE4E4",
"v. c #F2E4E4",
"b. c #F4EBEB",
"n. c #F5F5F5",
"m. c #F6FCFC",
"M. c #FAFEFE",
/* pixels */
"m.n.n.n.n.m.n.n.n.n.n.n.n.n.n.n.M.m.m.m.n.n.n.n.n.n.n.n.n.n.n.n.n.m.n.",
"n.n.n.n.n.n.n.n.n.n.n.n.m.M.n.v.x.k.x.v.n.M.m.n.n.n.n.n.n.n.n.n.n.n.n.",
"n.n.n.n.n.n.n.n.n.n.M.b.t./ n e q 0 e h J #.p.b.m.n.n.n.n.n.n.n.n.n.n.",
"n.n.n.n.n.n.n.n.M.b.@.y 6 6 9 9 e e s s a p p K 6.b.m.n.n.m.n.n.n.n.n.",
"n.n.n.n.n.n.n.M.r.y 5 6 q 0 0 i a s d g z D A S g U s.M.n.n.n.n.n.n.m.",
"n.n.n.n.n.m.M.X.$ 5 6 6 9 0 0 i i a s g j j F U ` P S 7.m.n.n.n.n.n.n.",
"n.n.n.n.n.m.^ # 5 5 6 9 0 0 0 i i i s s g k S I { :.%.S 4.m.n.n.n.n.n.",
"m.n.n.n.m.| # 5 5 6 9 9 0 0 0 i i i a s g j z V F ' 0.7.F 8.m.n.n.n.n.",
"n.n.n.M.2.O $ 5 5 6 9 9 0 9 i i 0 i i a s g j V D D U a.7.D d.M.n.n.m.",
"n.n.n.v.> O $ $ 5 6 6 9 9 9 9 0 e i i i s d g j V F F ' k.%.' b.n.n.n.",
"n.n.M.O.o # $ 5 5 6 6 9 9 9 9 0 0 i i i i s d g j V P D -.d.U 9.m.n.n.",
"n.n.v.@ O # $ 5 6 6 6 6 9 9 9 9 0 0 i i i a d d j V V P P 0.;.' b.n.n.",
"n.M.1.. O # $ $ 5 5 6 6 9 9 9 9 9 0 e i i a a d j j V F D &.9.P s.m.n.",
"n.M.E o O # $ 5 5 5 5 6 6 6 9 9 0 0 0 0 e i a a d j z V D U 4.Y >.m.n.",
"m.b.: . O # $ $ 5 5 5 6 6 6 9 9 9 0 0 i e i i s s g j V V F ' ` [ n.n.",
"m.z.. o O O # $ $ 5 5 6 6 6 6 9 9 9 9 0 e e e e s d g j V F P P ` v.m.",
"M.h.. o O O # $ $ 5 5 5 5 6 6 9 9 9 9 0 0 i i i i p d h j V ` L P x.m.",
"M.h.  . o O # # $ $ 5 5 5 6 6 6 9 9 9 9 0 0 0 i i p p g j z ] ) A k.m.",
"M.j.  . o O O # # $ $ 5 5 6 6 6 9 9 9 9 0 0 0 i e i s s d j ] ) A x.m.",
"M.z.. . o o O O # $ $ 5 5 5 5 6 6 9 9 9 9 0 0 e e i i s s j _ J Z v.n.",
"n.n.;   + o o O # # $ $ 5 5 5 6 6 9 9 9 9 9 0 0 e e i a s f Z h ) n.n.",
"n.M.R   : + o O O # # $ $ 5 5 6 6 6 6 9 9 9 9 0 e e e u e f f e $.m.n.",
"n.M.<.  1 : o o O # # $ $ $ $ 5 5 6 6 6 9 9 9 0 0 0 e u e u b e p.m.n.",
"n.n.c.X ; T . o o O O # $ $ $ 5 5 6 5 6 6 9 9 9 q q w e w l J m b.n.n.",
"n.n.M.O.  R < . o o O O # $ $ 5 $ 6 5 6 6 9 6 9 9 q q w q ! n 3.M.n.n.",
"n.n.n.c.X , W * . o o O # # # $ $ $ 5 6 6 6 6 6 6 9 q 9 l / B b.n.n.n.",
"n.n.n.M.q.  2 E + . o o O O # $ $ $ 5 5 5 5 6 6 6 8 6 8 ( N u.m.n.n.n.",
"n.n.n.n.M...  3 3 + . o o O O # # $ $ $ $ 5 5 6 6 5 8 ~ N =.m.n.n.n.m.",
"n.n.n.n.n.M.Q   = : o o o o O O # # $ $ $ 5 $ 5 5 t M v o.m.n.n.n.n.n.",
"n.m.n.n.n.n.M.O.. o + o o o o o O O # # # # $ % & t t =.m.n.n.n.n.n.n.",
"n.n.n.n.n.n.n.M.e.= o o + + + + o @ O O % % % % $ c u.m.n.n.n.n.n.n.n.",
"n.n.n.n.n.n.n.n.M.b.+.: . o o + @ @ @ @ O O # x ,.b.M.n.n.n.n.n.m.n.n.",
"n.n.n.m.n.n.m.n.n.n.M.b.w.} 2 < = * - < 4 | y.b.M.n.n.n.n.n.n.n.n.n.n.",
"n.n.n.n.n.n.n.n.n.n.n.m.M.M.m.c.z.l.z.v.n.M.m.n.n.n.n.n.n.n.n.n.n.m.n.",
"n.n.n.n.n.n.n.n.n.n.n.n.b.n.n.m.m.M.M.m.n.n.n.n.n.n.n.n.n.n.n.n.n.n.n."
};
