/* XPM */
static char *wall_resized[] = {
/* columns rows colors chars-per-pixel */
"35 35 185 2 ",
"   c None",
".  c #343333",
"X  c #343433",
"o  c #353433",
"O  c #353434",
"+  c #363534",
"@  c #373634",
"#  c #383635",
"$  c #3B3735",
"%  c #3B3835",
"&  c #3D3835",
"*  c #3D3935",
"=  c #3C3936",
"-  c #3D3A37",
";  c #3F3A36",
":  c #3E3A37",
">  c #3E3B37",
",  c #3F3C37",
"<  c #403A36",
"1  c #403B36",
"2  c #423C36",
"3  c #423C37",
"4  c #453E37",
"5  c #403C38",
"6  c #413D38",
"7  c #423D39",
"8  c #433E39",
"9  c #453F39",
"0  c #46403A",
"q  c #47403A",
"w  c #4B4139",
"e  c #48413A",
"r  c #49413A",
"t  c #48423B",
"y  c #4E453D",
"u  c #4F463D",
"i  c #53473D",
"p  c #55473C",
"a  c #55483D",
"s  c #574A3E",
"d  c #594A3D",
"f  c #584B3E",
"g  c #594B3E",
"h  c #5D4D3E",
"j  c #5C4D3F",
"k  c #5E4D3E",
"l  c #594C41",
"z  c #5B4D41",
"x  c #5A4E42",
"c  c #5C4D40",
"v  c #5D4E40",
"b  c #5E4E40",
"n  c #5E4F40",
"m  c #5C4F43",
"M  c #5E4F42",
"N  c #5F4F42",
"B  c #5A4F44",
"V  c #5B4F44",
"C  c #5D5043",
"Z  c #5D5044",
"A  c #5E5144",
"S  c #5F5144",
"D  c #5E5145",
"F  c #5F5145",
"G  c #605143",
"H  c #615347",
"J  c #625347",
"K  c #625446",
"L  c #635446",
"P  c #625447",
"I  c #8E6748",
"U  c #966C49",
"Y  c #9C6F4B",
"T  c #9D704B",
"R  c #9F714B",
"E  c #987857",
"W  c #9A7958",
"Q  c #9F7C59",
"!  c #A0714B",
"~  c #A3734C",
"^  c #A8764E",
"/  c #A9774E",
"(  c #AA774E",
")  c #AB784E",
"_  c #AC784E",
"`  c #AD794F",
"'  c #AF7A4F",
"]  c #B07A4F",
"[  c #B07B4F",
"{  c #B17B4F",
"}  c #A17E5A",
"|  c #B17B50",
" . c #B37C50",
".. c #B47D50",
"X. c #B57D50",
"o. c #B57E50",
"O. c #B67E50",
"+. c #B77F51",
"@. c #B87F51",
"#. c #A8835D",
"$. c #AA845D",
"%. c #AE875F",
"&. c #AF875F",
"*. c #BA8052",
"=. c #B08860",
"-. c #B28A60",
";. c #B38A61",
":. c #B58B61",
">. c #B58C61",
",. c #B58C62",
"<. c #B68C62",
"1. c #B68D62",
"2. c #B78D62",
"3. c #B88E62",
"4. c #B98E63",
"5. c #BA8F63",
"6. c #BB8F63",
"7. c #B68E6A",
"8. c #BB9064",
"9. c #BC9064",
"0. c #BC9164",
"q. c #BD9164",
"w. c #BE9264",
"e. c #BF9365",
"r. c #B8906B",
"t. c #BA916C",
"y. c #BC926D",
"u. c #BD936E",
"i. c #BE946E",
"p. c #BF946E",
"a. c #C18453",
"s. c #CA8A55",
"d. c #CB8A55",
"f. c #CB8A56",
"g. c #CC8A56",
"h. c #CC8B56",
"j. c #C09365",
"k. c #C19365",
"l. c #C19465",
"z. c #C19466",
"x. c #C29466",
"c. c #C39566",
"v. c #C49667",
"b. c #C59667",
"n. c #C0956F",
"m. c #C1966F",
"M. c #C79868",
"N. c #C89868",
"B. c #C39770",
"V. c #C49870",
"C. c #C59971",
"Z. c #C69A71",
"A. c #C79A72",
"S. c #C89B72",
"D. c #C99B72",
"F. c #C99C73",
"G. c #CA9C73",
"H. c #CB9D73",
"J. c #CC9D73",
"K. c #CC9E74",
"L. c #CD9E74",
"P. c #CD9F74",
"I. c #CE9F74",
"U. c #CE9F75",
"Y. c #D4A16C",
"T. c #D4A16D",
"R. c #D5A16D",
"E. c #D5A26D",
"W. c #D6A26D",
"Q. c #CFA075",
"!. c #D0A075",
"~. c #D0A176",
"^. c #D1A176",
"/. c #D1A276",
"(. c #D2A276",
"). c #D3A277",
"_. c #D4A377",
"`. c #D4A477",
"'. c #D5A478",
"]. c #D8A679",
"[. c #E3AE7D",
"{. c #E3AE7E",
"}. c #E4AE7E",
"|. c #E4AF7E",
" X c #E5AF7E",
/* pixels */
"                                                                      ",
"                                                                      ",
"    . $ * * % + = - - - - - - - - - - - - - - - - - - - - - : = X     ",
"    & I ^ ^ U i } &.%.%.%.%.%.%.%.%.%.%.%.%.%.%.%.%.%.%.%.&.=.E ,     ",
"    < ` *.X.+.v b.W.E.E.E.E.E.E.E.E.E.E.E.E.E.E.E.E.E.E.W.w.k.5.8     ",
"    ; _ ] / O.c v.R.Y.Y.Y.Y.Y.Y.Y.Y.Y.Y.Y.Y.Y.Y.Y.Y.Y.Y.E.;.1.4.8     ",
"    ; ( g.f.X.g -.z.j.k.x.k.j.j.k.x.k.j.j.k.x.l.j.j.k.x.l.x.c.#.6     ",
"    ; ( d.s.o.w x S S m u m S S C u m S S C u m S S C y g j j a @     ",
"    ; ( d.s...z u.P.I.t.B t.I.P.y.B r.I.P.i.V 7.U.P.n.l ! @.@.R 1     ",
"    ; ( d.s...N /.|. XU.J Q. X|.~.P K. X|.).P F. X|.'.G { g.h.] 3     ",
"    ; ( d.s...M ~.[.{.L.H I.{.[.Q.H H.{.[.(.J S.}.[._.G [ s.d.' 2     ",
"    ; ( d.s...M ~.[.{.L.H I.{.[.Q.H H.{.[.(.J S.}.[._.G [ s.d.' 2     ",
"    ; ( d.s...M ~.[.{.L.H I.{.[.Q.H H.{.[.(.J S.}.[._.G [ s.d.' 2     ",
"    ; ( d.s...M ~.[.{.L.H I.{.[.Q.H H.{.[.(.J S.}.[._.G [ s.d.' 2     ",
"    ; ( d.s...M ~.[.{.L.H I.{.[.Q.H H.{.[.(.J S.}.[._.G [ s.d.' 2     ",
"    ; ( d.s...M ~.[.{.L.H I.{.[.Q.H H.{.[.(.J S.}.[._.G [ s.d.' 2     ",
"    ; ( d.s...M ~.[.{.L.H I.{.[.Q.H H.{.[.(.J S.}.[._.G [ s.d.' 2     ",
"    ; ( d.s...M ~.[.{.L.H I.{.[.Q.H H.{.[.(.J S.}.[._.G [ s.d.' 2     ",
"    ; ( d.s...M ~.[.{.L.H I.{.[.Q.H H.{.[.(.J S.}.[._.G [ s.d.' 2     ",
"    ; ( d.s...M ~.[.{.L.H I.{.[.Q.H H.{.[.(.J S.}.[._.G [ s.d.' 2     ",
"    ; ( d.s...M ~.[.{.L.H I.{.[.Q.H H.{.[.(.J S.}.[._.G [ s.d.' 2     ",
"    ; ( d.s...M ~.[.{.L.H I.{.[.Q.H H.{.[.(.J S.}.[._.G [ s.d.' 2     ",
"    ; ( d.s...M ~.[.{.L.H I.{.[.Q.H H.{.[.(.J S.}.[._.G [ s.d.' 2     ",
"    ; ( d.s...M ~.[.{.L.H I.{.[.Q.H H.{.[.(.J S.}.[._.G [ s.d.' 2     ",
"    ; ( d.s...M ~.[.{.L.H I.{.[.Q.H H.{.[.(.J S.}.[._.G [ s.d.' 2     ",
"    ; ) f.d.X.N ^.}.}.P.H U.}.}.!.J J.|.}.(.P D.|.{.`.G [ s.d.' 2     ",
"    ; ~ a.a._ z Z.].].B.D V.].].C.D m.].].A.D p.].].G.M [ s.d.' 2     ",
"    + p k h d e F K L A t A L K F t A L K F t Z L K A r | s.d.' 2     ",
"    : W 2.1.,.<.:.:.:.:.<.:.:.:.:.<.:.:.:.:.<.:.:.>.$.f { g.h.' 2     ",
"    5 :.e.3.W.R.R.R.R.R.R.R.R.R.R.R.R.R.R.R.R.R.R.E.N.b { |  .] 2     ",
"    5 :.0.:.E.T.T.T.T.T.T.T.T.T.T.T.T.T.T.T.T.T.T.E.M.n  .[ | | 3     ",
"    > Q q.9.6.6.6.6.6.6.6.6.6.6.6.6.6.6.6.6.6.6.6.8.=.s T X.X.Y <     ",
"    O 7 q 0 0 0 0 0 0 0 0 0 0 0 0 0 0 0 0 0 0 0 0 0 9 # 2 4 4 2 o     ",
"                                                                      ",
"                                                                      "
};
